<svg width="339" height="191" viewBox="0 0 339 191" fill="none" xmlns="http://www.w3.org/2000/svg">
<path d="M266.755 46.1604C256.903 46.1604 247.507 48.1455 238.941 51.7322L218.459 11.9913H247.086C250.192 11.9913 252.719 14.518 252.719 17.6236C252.719 20.7293 250.192 23.256 247.086 23.256H240.978C237.763 23.256 235.158 25.8619 235.158 29.0762C235.158 32.2905 237.763 34.8964 240.978 34.8964H247.086C256.61 34.8964 264.359 27.1478 264.359 17.6236C264.359 8.0995 256.611 0.350891 247.086 0.350891H208.912C206.883 0.350891 204.999 1.40861 203.942 3.14148C202.886 4.87434 202.809 7.03324 203.738 8.8375L213.923 28.6005H129.924L121.45 11.9913H134.851C138.066 11.9913 140.671 9.38537 140.671 6.17107C140.671 2.95678 138.066 0.350891 134.851 0.350891H96.6763C93.4613 0.350891 90.8561 2.95678 90.8561 6.17107C90.8561 9.38537 93.4613 11.9913 96.6763 11.9913H108.382L119.693 34.1607L106.398 54.7587C96.2224 49.2761 84.5913 46.1604 72.2448 46.1604C32.4091 46.1604 0 78.5687 0 118.404C0 158.24 32.4091 190.649 72.2448 190.649C110.121 190.649 141.281 161.349 144.254 124.225H161.332L154.698 145.812H150.879C147.663 145.812 145.058 148.418 145.058 151.632C145.058 154.846 147.663 157.452 150.879 157.452H171.831C175.046 157.452 177.651 154.846 177.651 151.632C177.651 148.418 175.046 145.812 171.831 145.812H166.875L174.534 120.891L222.963 46.1387L228.604 57.0829C208.15 69.8547 194.51 92.5651 194.51 118.404C194.51 158.24 226.92 190.649 266.756 190.649C306.592 190.649 339.001 158.24 339.001 118.404C339 78.5687 306.591 46.1604 266.755 46.1604ZM125.81 46.1488L159.705 112.584H144.254C142.576 91.6432 131.929 73.1947 116.167 61.088L125.81 46.1488ZM132.564 112.584H82.9291L109.827 70.9125C122.405 80.8883 130.95 95.7352 132.564 112.584ZM72.2448 179.009C38.8268 179.009 11.6404 151.822 11.6404 118.404C11.6404 84.9872 38.8268 57.8 72.2448 57.8C82.2663 57.8 91.7191 60.26 100.055 64.5848L67.3543 115.248C66.1988 117.038 66.1142 119.317 67.1339 121.188C68.1528 123.059 70.1138 124.224 72.2448 124.224H132.564C129.624 154.921 103.699 179.009 72.2448 179.009ZM169.809 106.774L135.863 40.2401H212.914L169.809 106.774ZM266.755 179.009C233.337 179.009 206.15 151.822 206.15 118.404C206.15 97.0653 217.246 78.2808 233.961 67.4793L261.581 121.071C262.615 123.075 264.65 124.225 266.76 124.225C267.658 124.225 268.569 124.017 269.422 123.577C272.28 122.105 273.402 118.595 271.929 115.737L244.3 62.1302C251.25 59.3474 258.823 57.7992 266.755 57.7992C300.173 57.7992 327.36 84.9864 327.36 118.404C327.36 151.822 300.173 179.009 266.755 179.009Z" fill="#495867"/>
</svg>
