<svg width="40" height="47" viewBox="0 0 40 47" fill="none" xmlns="http://www.w3.org/2000/svg">
<path d="M33.7559 43.3036H34.2559V42.8036V30.7143H37.482V46.5H0.5V30.7143H3.7261V42.8036V43.3036H4.2261H33.7559ZM29.1756 32.7706L9.47771 28.6728L10.1383 25.5291L29.8349 29.6567L29.1756 32.7706ZM33.0575 22.6708L17.6093 9.84936L19.6631 7.38617L35.1112 20.2076L33.0575 22.6708ZM13.6094 16.0864L31.855 24.5506L30.5024 27.4528L12.2636 19.0071L13.6094 16.0864ZM36.7203 18.6363L24.7157 2.61931L27.2945 0.698749L39.2991 16.7157L36.7203 18.6363ZM8.93106 38.0757V34.9107H29.0615V38.0757H8.93106Z" fill="#E63946" stroke="#495867"/>
</svg>
