<svg width="43" height="43" viewBox="0 0 43 43" fill="none" xmlns="http://www.w3.org/2000/svg">
<path d="M42.5 27.2298V42.5H34.5948V29.0247C34.5948 27.3812 34.5844 25.3797 33.9551 23.7906C33.6347 22.9817 33.1454 22.254 32.3971 21.7321C31.6478 21.2094 30.6815 20.9227 29.4598 20.9227C28.2361 20.9227 27.2351 21.1618 26.427 21.6092C25.6161 22.0582 25.0292 22.7006 24.6112 23.4585C23.7883 24.9508 23.6146 26.9039 23.6146 28.7847V42.5H15.7093V14.7911H23.2594V18.2073V18.7073H23.7594H23.8842H24.1857L24.3264 18.4406C25.4342 16.3411 28.1759 14.0712 32.3191 14.0712C36.7069 14.0712 39.1921 15.5051 40.6198 17.773C42.0809 20.0938 42.5 23.382 42.5 27.2298ZM9.12509 42.5H1.21027V14.7911H9.12509V42.5ZM5.16288 9.87494C2.59448 9.87494 0.5 7.74375 0.5 5.16299C0.5 3.92629 0.991269 2.74024 1.86573 1.86576C2.74019 0.991276 3.92621 0.5 5.16288 0.5C6.39955 0.5 7.58557 0.991276 8.46003 1.86576C9.33449 2.74024 9.82576 3.92629 9.82576 5.16299C9.82576 7.74369 7.73038 9.87494 5.16288 9.87494Z" fill="#EF8354" stroke="#495867"/>
</svg>
