<svg width="43" height="43" viewBox="0 0 43 43" fill="none" xmlns="http://www.w3.org/2000/svg">
<path d="M9.52204 32.1863L9.51306 32.1749L9.50015 32.1586L9.48668 32.1415C9.4958 32.1343 9.50494 32.1278 9.51406 32.1219C9.52811 32.1128 9.54209 32.1052 9.55577 32.0988C9.58912 32.0832 9.62067 32.0751 9.64711 32.0713C9.65496 32.0702 9.66235 32.0695 9.66922 32.069C9.67309 32.0687 9.67679 32.0686 9.68031 32.0685C9.68244 32.0684 9.68453 32.0684 9.68657 32.0684C9.6875 32.0699 9.68844 32.0714 9.68937 32.0728M9.52204 32.1863L9.55861 32.2327C9.56548 32.2298 9.5723 32.2267 9.57903 32.2232C9.58856 32.2184 9.5979 32.213 9.60698 32.2069C9.6149 32.2005 9.62231 32.1938 9.62924 32.187C9.65496 32.1614 9.67388 32.1331 9.68643 32.1061C9.6902 32.0979 9.69328 32.0902 9.69581 32.0829C9.69366 32.0795 9.69151 32.0762 9.68937 32.0728M9.52204 32.1863L9.54526 32.1706L9.52204 32.1863ZM9.68937 32.0728L9.59018 32.1401L9.68937 32.0728ZM9.54852 32.2366L9.51218 32.193L9.50287 32.1818L9.489 32.1652L9.47628 32.1499C9.45845 32.1648 9.4439 32.1815 9.4325 32.1987C9.42479 32.2103 9.41853 32.2221 9.41367 32.2336C9.41196 32.2377 9.41046 32.2416 9.40915 32.2454C9.40875 32.2465 9.40837 32.2477 9.40801 32.2488L9.54852 32.2366ZM9.54852 32.2366C9.52693 32.2446 9.50491 32.2497 9.48338 32.2521C9.46103 32.2546 9.44158 32.2539 9.42545 32.2518L9.54852 32.2366ZM13.897 34.5363C13.9009 34.5253 13.9054 34.5153 13.9101 34.5063C13.9131 34.5108 13.916 34.5156 13.9188 34.5207C13.919 34.521 13.9192 34.5213 13.9194 34.5216C13.9241 34.5303 13.9282 34.5391 13.9317 34.548C13.9416 34.5737 13.9462 34.5998 13.9462 34.6235C13.9462 34.6499 13.9426 34.6733 13.937 34.6938C13.9354 34.6997 13.9336 34.7054 13.9317 34.7108C13.9272 34.7233 13.9221 34.7344 13.9166 34.7443C13.9162 34.7436 13.9157 34.7429 13.9153 34.7422C13.9143 34.7405 13.9134 34.7389 13.9124 34.7373C13.9065 34.7269 13.9013 34.7158 13.897 34.704C13.8878 34.6793 13.8825 34.6519 13.8825 34.6235C13.8825 34.593 13.8872 34.5665 13.8944 34.5439C13.8952 34.5413 13.8961 34.5388 13.897 34.5363ZM6.59556 28.657C6.59532 28.657 6.59508 28.6569 6.55403 29.1553L6.59508 28.6569L6.57773 28.6555L6.56031 28.6553C6.27244 28.6517 6.02606 28.6714 5.822 28.7201C5.624 28.7675 5.4143 28.8545 5.26197 29.0265C5.0912 29.2193 5.05099 29.4514 5.08278 29.6542C5.11133 29.8364 5.19567 29.9927 5.27237 30.1076C5.42722 30.3395 5.65207 30.5493 5.81382 30.6872C5.89892 30.7598 5.97573 30.8202 6.03155 30.8626C6.05957 30.8839 6.08259 30.901 6.09908 30.913L6.1188 30.9272L6.12468 30.9314L6.12657 30.9327L6.12724 30.9332L6.1275 30.9334C6.12762 30.9335 6.12773 30.9336 6.41532 30.5245L6.12773 30.9336L6.16345 30.9587L6.203 30.9772C6.76321 31.24 7.3006 31.9299 7.72134 32.6532C7.92315 33.0001 8.08354 33.3287 8.1935 33.5709C8.24832 33.6916 8.29023 33.79 8.31812 33.8575C8.33206 33.8912 8.34247 33.9171 8.34922 33.9341L8.35407 33.9464C9.08921 36.2182 11.1896 36.9247 12.9259 37.0951C13.8086 37.1817 14.643 37.1369 15.2532 37.0718C15.4062 37.0555 15.5457 37.0379 15.6691 37.0205C15.6709 37.848 15.6762 38.8045 15.6814 39.6547C15.6833 39.9708 15.6852 40.2718 15.687 40.5461C15.6912 41.1959 15.6944 41.6955 15.6944 41.8879C15.6944 42.077 15.6291 42.2505 15.5179 42.3551C15.4266 42.441 15.2339 42.5469 14.8201 42.4782C6.40624 39.5692 0.5 31.3368 0.5 21.6953C0.5 9.62908 9.48405 0.5 21.2226 0.5C32.978 0.5 42.5 9.64599 42.5 21.6953C42.5 31.3437 36.7604 39.5712 28.3276 42.4604C27.919 42.5289 27.7252 42.424 27.6319 42.3365C27.5188 42.2307 27.453 42.0564 27.453 41.8701C27.453 41.6306 27.4558 41.0675 27.4596 40.3116C27.4616 39.9217 27.4638 39.4806 27.466 39.006C27.4725 37.6133 27.479 35.9362 27.479 34.4368C27.479 32.8032 27.0845 31.5623 26.4989 30.6965C28.6247 30.4314 30.8394 30.0344 32.5849 28.8162C34.6425 27.3802 35.9577 24.8819 35.9577 20.486C35.9577 19.2044 35.733 18.2132 35.3107 17.3286C34.9323 16.5361 34.4049 15.8509 33.7892 15.1394C34.0891 14.2011 34.5675 11.9032 33.4622 9.03198L33.3765 8.80941L33.1496 8.73593C32.5448 8.54004 31.8195 8.65626 31.1502 8.86102C30.4616 9.07171 29.7389 9.40623 29.0908 9.75025C28.4399 10.0957 27.8492 10.4588 27.4222 10.7347C27.2129 10.87 27.0421 10.9848 26.9217 11.0672C25.2076 10.5984 23.38 10.3565 21.5694 10.3565C19.7586 10.3565 17.9308 10.5984 16.2166 11.0674C16.0963 10.9852 15.9254 10.8706 15.716 10.7357C15.289 10.4605 14.6985 10.0983 14.0476 9.75342C13.3996 9.41001 12.6771 9.0759 11.9888 8.86485C11.3198 8.65976 10.5953 8.54255 9.9912 8.73525L9.76297 8.80805L9.6767 9.03153C8.57101 11.8955 9.04978 14.2 9.3496 15.1395C8.73338 15.8571 8.24785 16.545 7.91335 17.3444C7.54301 18.2294 7.37177 19.2169 7.37177 20.486C7.37177 24.8612 8.62794 27.3616 10.6299 28.805C12.335 30.0345 14.5126 30.4362 16.6347 30.7C16.2446 31.288 15.9326 32.0417 15.7691 32.9615C15.1713 33.2125 14.2815 33.4728 13.3531 33.3876C12.3296 33.2938 11.2067 32.7777 10.3379 31.2072L10.3364 31.2046C9.67852 30.0323 8.74835 29.3946 7.98664 29.0526C7.60669 28.882 7.26699 28.784 7.01969 28.7283C6.8958 28.7004 6.79434 28.683 6.72165 28.6723C6.68528 28.667 6.65604 28.6633 6.6347 28.6609L6.6087 28.6582L6.60031 28.6574L6.59729 28.6571L6.59609 28.657L6.59556 28.657ZM7.61991 29.9988C7.62203 29.9949 7.62421 29.9911 7.62645 29.9874C7.67478 30.0098 7.72384 30.0337 7.77346 30.0592L7.76529 30.0751L7.76072 30.084L7.75888 30.0876L7.63933 30.0248L7.61354 30.0113C7.61448 30.0093 7.61543 30.0073 7.61641 30.0054C7.61756 30.0031 7.61872 30.0009 7.61991 29.9988ZM7.79898 30.0928L7.80439 30.0752C7.81065 30.0785 7.81693 30.0818 7.82321 30.0851C7.86365 30.1065 7.90443 30.129 7.94545 30.1525C7.9435 30.1572 7.94145 30.1618 7.93928 30.1664C7.93869 30.1677 7.93809 30.1689 7.93749 30.1702C7.93604 30.1732 7.93456 30.1761 7.93302 30.179L7.80582 30.1122L7.79477 30.1064L7.79633 30.1014L7.79898 30.0928ZM7.60697 30.0262L7.74282 30.1189L7.6613 30.2779C7.63553 30.263 7.612 30.2468 7.59095 30.2298C7.5871 30.2143 7.58413 30.1969 7.5827 30.1777C7.57893 30.127 7.58708 30.0745 7.60697 30.0262ZM7.73037 30.3157L7.78114 30.1507L7.78258 30.1461L7.78367 30.1468L7.9033 30.2285C7.86538 30.284 7.8196 30.3163 7.78123 30.3345C7.76416 30.3298 7.74712 30.3235 7.73037 30.3157ZM8.73067 30.785C8.74508 30.7818 8.75846 30.7799 8.77061 30.779C8.78307 30.7914 8.79549 30.8038 8.80789 30.8164L8.6973 30.9129L8.68762 30.9213L8.65917 30.9461L8.65194 30.9524L8.509 31.0771C8.50609 31.0455 8.50891 30.9542 8.5814 30.8703C8.58239 30.8691 8.5834 30.868 8.58442 30.8668C8.58948 30.8612 8.59486 30.8555 8.60058 30.8499C8.60306 30.8478 8.60556 30.8458 8.6081 30.8438C8.61526 30.8381 8.62263 30.8328 8.63018 30.8278C8.66168 30.8071 8.69621 30.7927 8.73067 30.785ZM8.52905 31.1016C8.52724 31.1012 8.52555 31.1007 8.52399 31.1003L8.55483 31.0703L8.66742 30.972L8.67709 30.9636L8.70555 30.9388L8.71277 30.9325L8.82537 30.8342C8.83474 30.8439 8.8441 30.8536 8.85344 30.8634C8.84716 30.9054 8.8292 30.9615 8.78332 31.0146C8.78232 31.0158 8.78131 31.0169 8.78029 31.0181C8.77524 31.0237 8.76986 31.0294 8.76414 31.035C8.76166 31.0371 8.75915 31.0391 8.75662 31.0411C8.74946 31.0468 8.74209 31.0522 8.73454 31.0571C8.70304 31.0778 8.66851 31.0922 8.63405 31.0999C8.58402 31.1111 8.54662 31.1057 8.52905 31.1016ZM10.7084 33.3531C10.7101 33.3526 10.7118 33.352 10.7135 33.3515C10.7132 33.3527 10.7128 33.3539 10.7125 33.3551C10.7104 33.3623 10.7079 33.3699 10.7049 33.3775C10.6999 33.3907 10.6934 33.4043 10.6855 33.418C10.6794 33.4284 10.6724 33.4388 10.6645 33.4491C10.6618 33.4527 10.6589 33.4563 10.6558 33.4598C10.6476 33.4671 10.6393 33.4736 10.631 33.4793C10.6254 33.4832 10.6198 33.4868 10.6142 33.49C10.5984 33.4992 10.5829 33.5059 10.5683 33.5107C10.5647 33.5119 10.5611 33.513 10.5576 33.514C10.5539 33.515 10.5503 33.516 10.5467 33.5168C10.5492 33.5094 10.5522 33.5016 10.5558 33.4934C10.5574 33.4897 10.5592 33.486 10.561 33.4822C10.5663 33.4716 10.5726 33.4605 10.5801 33.4491C10.5816 33.4469 10.5831 33.4448 10.5846 33.4426C10.5888 33.4366 10.5934 33.4306 10.5983 33.4245C10.6049 33.4174 10.6118 33.4108 10.619 33.4046C10.6271 33.3976 10.6356 33.3911 10.6442 33.3853C10.6466 33.3836 10.649 33.382 10.6515 33.3804C10.6653 33.3717 10.6794 33.3645 10.6935 33.3587C10.6985 33.3567 10.7035 33.3548 10.7084 33.3531ZM15.5349 34.4025C15.5319 34.3821 15.5316 34.3626 15.5331 34.3443L15.5471 34.4007L15.5349 34.4025ZM15.5355 34.4062L15.5479 34.4043L15.5574 34.4426L15.5576 34.4439L15.5444 34.4458C15.5407 34.4335 15.5376 34.4203 15.5355 34.4062ZM15.5555 34.4242L15.5506 34.4039L15.5533 34.4035L15.5555 34.4242ZM15.5584 34.4521L15.5626 34.4917C15.5569 34.4803 15.5514 34.4675 15.5468 34.4536L15.5584 34.4521ZM15.6154 34.4449C15.6164 34.4533 15.6169 34.4619 15.6168 34.4706L15.6105 34.4455L15.6154 34.4449ZM15.6083 34.4364L15.5984 34.3965L15.6052 34.3955C15.609 34.4078 15.612 34.4212 15.6141 34.4356L15.6083 34.4364ZM15.6043 34.3923L15.5976 34.3933L15.5872 34.3511C15.5936 34.3634 15.5995 34.3771 15.6043 34.3923ZM15.5498 34.4003L15.5341 34.3347C15.5357 34.321 15.5385 34.3082 15.5419 34.2963L15.5529 34.3998L15.5498 34.4003ZM12.1332 34.2976C12.1368 34.2902 12.1405 34.2834 12.1444 34.277L12.1241 34.3431L12.1236 34.3445L12.1158 34.37L12.1065 34.4C12.1071 34.3897 12.1083 34.379 12.1103 34.3681C12.1119 34.3592 12.114 34.3501 12.1167 34.3409C12.1214 34.3248 12.127 34.3104 12.1332 34.2976ZM12.1595 34.3849C12.147 34.4214 12.1285 34.4483 12.1118 34.4664C12.11 34.4582 12.1085 34.4493 12.1075 34.44L12.1259 34.3734L12.1335 34.3458L12.1581 34.2568C12.1616 34.2522 12.1652 34.2479 12.1688 34.2439C12.1755 34.2763 12.1767 34.3151 12.1677 34.3558C12.1655 34.3654 12.1628 34.3751 12.1595 34.3849Z" fill="#EF8354" stroke="#495867"/>
</svg>
