<svg width="43" height="43" viewBox="0 0 43 43" fill="none" xmlns="http://www.w3.org/2000/svg">
<path d="M16.4857 29.7216L16.4856 29.7218L16.497 29.7299C16.5861 29.7929 16.5936 29.8457 16.5941 29.8581C16.5945 29.8679 16.5944 29.9117 16.5192 29.9715L16.5177 29.9727L14.5693 31.5345L14.5692 31.5344L14.5596 31.5424C14.4898 31.6013 14.3439 31.6597 14.1654 31.6597C14.0125 31.6597 13.8686 31.6107 13.7811 31.5492C13.7811 31.5492 13.781 31.5492 13.781 31.5492L7.31986 27.0065L7.31988 27.0065L7.31599 27.0038C7.22327 26.9399 7.22155 26.8892 7.22155 26.8813C7.22155 26.8723 7.22461 26.8176 7.32086 26.7491C7.3211 26.7489 7.32133 26.7487 7.32157 26.7486L13.7811 22.2071L13.7811 22.2072L13.7877 22.2024C13.8742 22.1394 14.0138 22.0941 14.1773 22.0975C14.3398 22.1009 14.4802 22.1514 14.5703 22.2226C14.5706 22.2228 14.5709 22.223 14.5711 22.2233L16.5177 23.7836L16.524 23.7887L16.5305 23.7935L16.5389 23.7998C16.5693 23.8273 16.5829 23.8501 16.589 23.8638C16.5954 23.8784 16.5964 23.8896 16.5956 23.8992C16.5943 23.914 16.5821 23.9711 16.4867 24.035C16.4864 24.0351 16.4862 24.0353 16.486 24.0354L12.8147 26.461L12.1833 26.8781L12.8147 27.2953L16.4752 29.7138L16.4857 29.7216ZM28.9666 3.96631L28.1667 3.36645V4.36633V10.7563V11.2563H28.6667H37.1883H38.6885L37.4882 10.3563L28.9666 3.96631ZM37.625 39.4695H38.125V38.9695V14.7868V14.2868H37.625H25.9792C25.3314 14.2868 24.7675 14.0908 24.3769 13.7979C23.9869 13.5055 23.7917 13.1383 23.7917 12.7715V4.03886V3.53886H23.2917H5.375H4.875V4.03886V38.9695V39.4695H5.375H37.625ZM23.3618 18.4655L23.3657 18.4664L26.098 19.0542L26.1016 19.0549C26.2652 19.0888 26.3555 19.1619 26.3922 19.2118C26.4225 19.2531 26.4188 19.2746 26.4103 19.296L26.4088 19.2999L20.2835 35.1026L20.2819 35.107C20.2706 35.137 20.222 35.2075 20.0895 35.2628C19.9623 35.3159 19.7989 35.3351 19.6382 35.2992L19.6358 35.2986L16.9035 34.7024L16.8984 34.7014C16.7348 34.6675 16.6445 34.5944 16.6078 34.5445C16.5775 34.5032 16.5812 34.4817 16.5897 34.4603L16.5912 34.4565L22.7149 18.6659C22.7151 18.6656 22.7152 18.6652 22.7154 18.6649C22.7545 18.5695 22.9933 18.3832 23.3618 18.4655ZM26.5144 24.0345L26.503 24.0264C26.4139 23.9634 26.4064 23.9106 26.4059 23.8982C26.4055 23.8884 26.4056 23.8446 26.4808 23.7848L26.4823 23.7836L28.4307 22.2218L28.4307 22.2218L28.4346 22.2187C28.5164 22.1517 28.6509 22.1009 28.8143 22.0975C28.9773 22.0941 29.1228 22.1392 29.2179 22.2064L29.2189 22.2071L35.6801 26.7498L35.684 26.7525C35.7767 26.8164 35.7785 26.8671 35.7785 26.875C35.7785 26.884 35.7754 26.9386 35.6794 27.0071C35.6791 27.0073 35.6787 27.0075 35.6784 27.0077L29.2189 31.5492L29.2179 31.5499C29.125 31.6156 28.9809 31.6598 28.8163 31.6557C28.6518 31.6516 28.5139 31.6004 28.4298 31.5338C28.4296 31.5336 28.4294 31.5335 28.4292 31.5333L26.4823 29.9727L26.476 29.9676L26.4695 29.9628L26.4611 29.9565C26.4307 29.9291 26.4171 29.9062 26.411 29.8925C26.4046 29.8779 26.4036 29.8667 26.4044 29.8571C26.4057 29.8423 26.4179 29.7852 26.5133 29.7213C26.5136 29.7212 26.5138 29.721 26.514 29.7209L30.1853 27.2953L30.8167 26.8781L30.1853 26.461L26.5248 24.0425L26.5143 24.0347L26.5144 24.0345ZM31.7261 1.58398L41.1211 8.62889C42.0288 9.30948 42.5 10.2044 42.5 11.0838V38.9695C42.5 39.8893 42.0036 40.7606 41.1253 41.4192C40.247 42.0778 39.0109 42.5 37.625 42.5H5.375C3.98906 42.5 2.75299 42.0778 1.87467 41.4192C0.996449 40.7606 0.5 39.8893 0.5 38.9695V4.03886C0.5 3.11913 0.996433 2.24767 1.87495 1.58797C2.75342 0.928296 3.98963 0.504062 5.37572 0.5H28.2299C29.5576 0.5 30.8152 0.900939 31.7261 1.58398Z" fill="#EF8354" stroke="#495867"/>
</svg>
